<svg width="50" height="50" viewBox="0 0 50 50" fill="none" xmlns="http://www.w3.org/2000/svg">
<rect width="50" height="50" rx="10" fill="#16A34A" fill-opacity="0.7"/>
<path d="M23.7572 15.0565L20.0281 11.2689L10 21.2965V28.7028L10.0262 28.7289L23.7572 15.0565ZM16.2971 24.9998L20.0254 21.2714L28.7249 29.9709L24.9965 33.6992L16.2971 24.9998ZM28.7289 39.9738C23.3895 34.6115 20.3959 31.6051 15.0565 26.2428L11.2689 29.9719L21.2966 40H28.7027L28.7289 39.9738ZM21.271 10.0261L34.9437 23.7574L38.7313 20.0286L28.7036 10H21.2971L21.271 10.0261ZM21.2688 20.0292L24.9972 16.3008L33.6967 25.0003L29.9683 28.7287L21.2688 20.0292ZM29.9717 38.731L40 28.7027V21.2455L26.2428 34.9435L29.9717 38.731ZM40 40V31.1884L31.1884 40H40ZM10 31.1885V40H18.811L10 31.1885ZM39.9742 18.7857L40 18.7599V10H31.1891L39.9742 18.7857ZM10 10V18.811L18.8114 10H10Z" fill="black"/>
</svg>
